<svg xmlns="http://www.w3.org/2000/svg" viewBox="0 0 64 64" role="img" aria-label="Plano Flags of Honor">
  <rect width="64" height="64" rx="14" fill="#0A2342"/>
  <path d="M12 14h40v36H12z" rx="4" fill="#fff"/>
  <path d="M12 14h40v6H12z" fill="#B31942"/>
  <path d="M12 26h40v6H12z" fill="#B31942"/>
  <path d="M12 38h40v6H12z" fill="#B31942"/>
  <path d="M12 14h20v18H12z" fill="#1F3A68"/>
  <path d="M22 18.2l1.4 4.1h4.3l-3.5 2.5 1.3 4.1-3.5-2.5-3.5 2.5 1.3-4.1-3.5-2.5h4.3z" fill="#fff"/>
  <path d="M32 6l3.9 8h8.8l-7.1 5.1 2.7 8.4L32 22.4l-8.3 5.1 2.7-8.4-7.1-5.1h8.8z" fill="#F6C453" stroke="#0A2342" stroke-width="1.2"/>
</svg>
